<svg width="56" height="56" viewBox="0 0 56 56" fill="none" xmlns="http://www.w3.org/2000/svg">
<g filter="url(#filter0_d_358_3674)">
<path d="M46 28C46 37.941 37.941 46 28 46C18.06 46 10 37.941 10 28C10 18.06 18.06 10 28 10C37.941 10 46 18.06 46 28Z" fill="#FFA06A"/>
<path d="M46 28C46 37.941 37.941 46 28 46C18.06 46 10 37.941 10 28C10 18.06 18.06 10 28 10C37.941 10 46 18.06 46 28Z" fill="url(#paint0_linear_358_3674)" fill-opacity="0.5"/>
<path d="M21.2646 17.2181C21.2513 17.6421 21.0735 18.0442 20.7689 18.3393C20.4643 18.6345 20.0568 18.7995 19.6326 18.7995C19.2085 18.7995 18.801 18.6345 18.4964 18.3393C18.1918 18.0442 18.014 17.6421 18.0006 17.2181C18.0006 16.3159 19.6318 13.9104 19.6318 13.9104C19.6318 13.9104 21.2646 16.3175 21.2646 17.2181Z" fill="white"/>
<path d="M16.3625 26.5467C16.3911 26.4329 17.1045 23.7647 21.1176 23.7647C25.1313 23.7647 25.8441 26.4329 25.8727 26.5467C25.9076 26.6845 25.8454 26.8275 25.7221 26.8986C25.5982 26.9691 25.4432 26.9482 25.3409 26.8497C25.3289 26.8376 24.0996 25.6706 21.1176 25.6706C18.1356 25.6706 16.9057 26.8376 16.8943 26.8491C16.8333 26.9094 16.752 26.9412 16.6706 26.9412C16.6173 26.9412 16.5633 26.9278 16.5144 26.9005C16.3899 26.8294 16.3276 26.6852 16.3625 26.5467Z" fill="#8A4118"/>
<path d="M30.1273 26.5467C30.1559 26.4329 30.8693 23.7647 34.8824 23.7647C38.8961 23.7647 39.6089 26.4329 39.6374 26.5467C39.6724 26.6845 39.6101 26.8275 39.4869 26.8986C39.363 26.9691 39.208 26.9482 39.1057 26.8497C39.0936 26.8376 37.8644 25.6706 34.8824 25.6706C31.9004 25.6706 30.6705 26.8376 30.659 26.8491C30.5981 26.9094 30.5167 26.9412 30.4354 26.9412C30.3821 26.9412 30.3281 26.9278 30.2791 26.9005C30.1546 26.8294 30.0924 26.6852 30.1273 26.5467Z" fill="#8A4118"/>
<path d="M20.1392 35.8928C20.2891 36.027 20.5131 36.0353 20.674 35.917C20.7068 35.8928 23.9766 33.5002 28.0001 33.5002C32.0135 33.5002 35.2943 35.8928 35.3263 35.917C35.4871 36.0353 35.7111 36.0253 35.861 35.8928C36.01 35.7595 36.0437 35.5395 35.9401 35.3695C35.8315 35.1911 33.2312 31 28.0001 31C22.7691 31 20.1679 35.1903 20.0601 35.3695C19.9565 35.5403 19.9894 35.7595 20.1392 35.8928Z" fill="#8A4118"/>
</g>
<defs>
<filter id="filter0_d_358_3674" x="0" y="0" width="56" height="56" filterUnits="userSpaceOnUse" color-interpolation-filters="sRGB">
<feFlood flood-opacity="0" result="BackgroundImageFix"/>
<feColorMatrix in="SourceAlpha" type="matrix" values="0 0 0 0 0 0 0 0 0 0 0 0 0 0 0 0 0 0 127 0" result="hardAlpha"/>
<feOffset/>
<feGaussianBlur stdDeviation="5"/>
<feComposite in2="hardAlpha" operator="out"/>
<feColorMatrix type="matrix" values="0 0 0 0 1 0 0 0 0 0.627451 0 0 0 0 0.415686 0 0 0 1 0"/>
<feBlend mode="normal" in2="BackgroundImageFix" result="effect1_dropShadow_358_3674"/>
<feBlend mode="normal" in="SourceGraphic" in2="effect1_dropShadow_358_3674" result="shape"/>
</filter>
<linearGradient id="paint0_linear_358_3674" x1="28" y1="10" x2="28" y2="46" gradientUnits="userSpaceOnUse">
<stop stop-color="#D35913" stop-opacity="0"/>
<stop offset="1" stop-color="#BB4400"/>
</linearGradient>
</defs>
</svg>
