<svg width="36" height="36" viewBox="0 0 36 36" fill="none" xmlns="http://www.w3.org/2000/svg">
<path d="M18 36C27.9411 36 36 27.9411 36 18C36 8.05887 27.9411 0 18 0C8.05887 0 0 8.05887 0 18C0 27.9411 8.05887 36 18 36Z" fill="#D2DDEC"/>
<path d="M10.515 22.621C10.56 22.8 11.683 27 18 27C24.318 27 25.44 22.8 25.485 22.621C25.54 22.404 25.442 22.179 25.248 22.067C25.053 21.956 24.809 21.989 24.648 22.144C24.629 22.163 22.694 24 18 24C13.306 24 11.37 22.163 11.352 22.145C11.256 22.05 11.128 22 11 22C10.916 22 10.831 22.021 10.754 22.064C10.558 22.176 10.46 22.403 10.515 22.621Z" fill="#6E84A3"/>
<path d="M12 18C13.3807 18 14.5 16.433 14.5 14.5C14.5 12.567 13.3807 11 12 11C10.6193 11 9.5 12.567 9.5 14.5C9.5 16.433 10.6193 18 12 18Z" fill="#6E84A3"/>
<path d="M24 18C25.3807 18 26.5 16.433 26.5 14.5C26.5 12.567 25.3807 11 24 11C22.6193 11 21.5 12.567 21.5 14.5C21.5 16.433 22.6193 18 24 18Z" fill="#6E84A3"/>
<path d="M18 36C27.9411 36 36 27.9411 36 18C36 8.05887 27.9411 0 18 0C8.05887 0 0 8.05887 0 18C0 27.9411 8.05887 36 18 36Z" fill="#D2DDEC"/>
<path d="M12 17C13.3807 17 14.5 15.433 14.5 13.5C14.5 11.567 13.3807 10 12 10C10.6193 10 9.5 11.567 9.5 13.5C9.5 15.433 10.6193 17 12 17Z" fill="#6E84A3"/>
<path d="M24 17C25.3807 17 26.5 15.433 26.5 13.5C26.5 11.567 25.3807 10 24 10C22.6193 10 21.5 11.567 21.5 13.5C21.5 15.433 22.6193 17 24 17Z" fill="#6E84A3"/>
<path d="M18 22.7514C15.3651 22.7514 13.6167 22.4455 11.4545 22.0265C10.9607 21.9316 10 22.0265 10 23.4762C10 26.3757 13.3418 30 18 30C22.6575 30 26 26.3757 26 23.4762C26 22.0265 25.0393 21.9308 24.5455 22.0265C22.3833 22.4455 20.6349 22.7514 18 22.7514Z" fill="#6E84A3"/>
</svg>
