<svg width="180" height="180" viewBox="0 0 180 180" fill="none" xmlns="http://www.w3.org/2000/svg">
<path d="M79.2396 179.371C78.6994 179.281 78.2491 179.281 77.7089 179.191C78.1591 179.191 78.6994 179.281 79.2396 179.371Z" fill="#D6E0FF"/>
<path d="M179.64 82.8557C179.73 83.3949 179.73 83.8442 179.73 84.3834C179.73 83.8442 179.64 83.3949 179.64 82.8557Z" fill="#D6E0FF"/>
<path d="M179.1 77.9131C179.19 78.4523 179.19 78.9016 179.28 79.4408C179.19 78.9915 179.1 78.4523 179.1 77.9131Z" fill="#D6E0FF"/>
<path d="M179.37 80.4294C179.46 80.9685 179.46 81.4179 179.55 81.9571C179.46 81.4179 179.46 80.8787 179.37 80.4294Z" fill="#D6E0FF"/>
<path d="M178.199 72.9705C178.289 73.5996 178.379 74.1388 178.559 74.678C178.469 74.1388 178.379 73.5097 178.199 72.9705Z" fill="#D6E0FF"/>
<path d="M177.659 70.005C177.839 70.8138 178.019 71.5327 178.199 72.3415C178.019 71.6226 177.839 70.8138 177.659 70.005Z" fill="#D6E0FF"/>
<path d="M84.1021 179.82C83.5618 179.82 83.1116 179.73 82.5713 179.73C83.1116 179.73 83.5618 179.73 84.1021 179.82Z" fill="#D6E0FF"/>
<path d="M178.739 75.4868C178.829 76.026 178.919 76.5652 179.01 77.1043C178.919 76.5652 178.829 76.026 178.739 75.4868Z" fill="#D6E0FF"/>
<path d="M76.8084 179.011C76.2681 178.922 75.7279 178.832 75.1876 178.742C75.7279 178.832 76.2681 179.011 76.8084 179.011Z" fill="#D6E0FF"/>
<path d="M81.6708 179.641C81.1306 179.551 80.6803 179.551 80.1401 179.461C80.5903 179.551 81.1306 179.551 81.6708 179.641Z" fill="#D6E0FF"/>
<path d="M177.659 70.005C170.095 37.3839 144.792 11.5926 112.466 3.23515C110.935 62.9056 62.7614 111.163 2.97149 112.691C0.990495 105.412 0 97.7733 0 89.9551C0 90.0449 0 90.1348 0 90.2247C0 133.719 30.9755 169.935 72.036 178.203C71.2256 178.023 70.5053 177.843 69.6949 177.663C79.8699 123.205 123.002 80.1598 177.659 70.005Z" fill="#D6E0FF"/>
<path d="M179.82 85.2821C179.82 85.8213 179.91 86.3605 179.91 86.9895C179.82 86.4503 179.82 85.8213 179.82 85.2821Z" fill="#D6E0FF"/>
<path d="M74.3772 178.652C73.7469 178.562 73.2066 178.472 72.6663 178.293C73.2066 178.472 73.8369 178.562 74.3772 178.652Z" fill="#D6E0FF"/>
<path d="M86.7134 179.91C86.1731 179.91 85.6328 179.82 85.0025 179.82C85.5428 179.91 86.1731 179.91 86.7134 179.91Z" fill="#D6E0FF"/>
<path d="M89.955 0.449326C97.6989 0.449326 105.263 1.43784 112.376 3.23515C112.376 3.05542 112.376 2.96555 112.376 2.78582C105.263 0.988517 97.6989 0 89.955 0C40.3402 0 0 40.2596 0 89.7753C0 89.8652 0 89.8652 0 89.9551C0.18009 40.5292 40.4302 0.449326 89.955 0.449326Z" fill="#E3EAFF"/>
<path d="M112.376 3.23515C105.173 1.34798 97.6989 0.449326 89.955 0.449326C40.4302 0.449326 0.18009 40.5292 0 89.9551C0 97.7733 0.990495 105.412 2.97149 112.601C62.7614 111.163 110.935 62.9056 112.376 3.23515Z" fill="#E3EAFF"/>
<path d="M87.4337 180C87.1636 180 86.8934 180 86.6233 180C86.9835 179.91 87.2536 179.91 87.4337 180Z" fill="#C2D1FF"/>
<path d="M82.5713 179.73C82.3011 179.73 81.941 179.641 81.6708 179.641C81.941 179.641 82.2111 179.641 82.5713 179.73Z" fill="#C2D1FF"/>
<path d="M77.6188 179.191C77.3487 179.191 76.9885 179.101 76.7184 179.101C77.0785 179.101 77.3487 179.101 77.6188 179.191Z" fill="#C2D1FF"/>
<path d="M85.0025 179.91C84.7324 179.91 84.3722 179.91 84.1021 179.82C84.3722 179.82 84.7324 179.82 85.0025 179.91Z" fill="#C2D1FF"/>
<path d="M80.1401 179.461C79.8699 179.461 79.5098 179.371 79.2396 179.371C79.5098 179.371 79.7799 179.461 80.1401 179.461Z" fill="#C2D1FF"/>
<path d="M179.55 81.8672C179.55 82.1368 179.64 82.4963 179.64 82.7658C179.55 82.4963 179.55 82.2267 179.55 81.8672Z" fill="#C2D1FF"/>
<path d="M179.28 79.4408C179.28 79.7104 179.37 80.0699 179.37 80.3395C179.37 80.0699 179.28 79.8003 179.28 79.4408Z" fill="#C2D1FF"/>
<path d="M179.73 84.3834C179.73 84.653 179.82 85.0125 179.82 85.2821C179.73 85.0125 179.73 84.653 179.73 84.3834Z" fill="#C2D1FF"/>
<path d="M75.1876 178.742C74.9175 178.652 74.6473 178.652 74.3772 178.652C74.6473 178.742 74.9175 178.742 75.1876 178.742Z" fill="#C2D1FF"/>
<path d="M178.919 77.1043C179.009 77.3739 179.009 77.7334 179.009 78.003C179.009 77.6435 179.009 77.3739 178.919 77.1043Z" fill="#C2D1FF"/>
<path d="M72.6663 178.293C72.4862 178.293 72.3061 178.203 72.036 178.203C72.2161 178.293 72.4862 178.293 72.6663 178.293Z" fill="#C2D1FF"/>
<path d="M178.559 74.678C178.649 74.9476 178.649 75.2172 178.649 75.4868C178.649 75.2172 178.649 74.9476 178.559 74.678Z" fill="#C2D1FF"/>
<path d="M178.109 72.3415C178.109 72.5212 178.199 72.7009 178.199 72.9705C178.199 72.7908 178.199 72.5212 178.109 72.3415Z" fill="#C2D1FF"/>
<path d="M179.91 87.7983C179.91 87.5287 179.91 87.2591 179.91 86.9895C179.91 86.4503 179.82 85.9111 179.82 85.2821C179.82 85.0125 179.82 84.653 179.73 84.3834C179.73 83.8442 179.64 83.305 179.64 82.8557C179.64 82.5861 179.55 82.2267 179.55 81.9571C179.46 81.4179 179.46 80.9685 179.37 80.4294C179.37 80.1598 179.28 79.8003 179.28 79.5307C179.19 78.9915 179.19 78.5422 179.1 78.003C179.1 77.7334 179.01 77.3739 179.01 77.1043C178.919 76.5652 178.829 76.026 178.739 75.4868C178.649 75.2172 178.649 74.9476 178.649 74.678C178.559 74.0489 178.469 73.5097 178.289 72.9705C178.289 72.7908 178.199 72.6111 178.199 72.3415C178.019 71.5327 177.839 70.8138 177.659 70.005C123.002 80.1598 79.8699 123.205 69.6949 177.753C70.5053 177.933 71.2256 178.113 72.036 178.293C72.2161 178.293 72.3962 178.382 72.6663 178.382C73.2967 178.472 73.8369 178.562 74.3772 178.742C74.6473 178.832 74.9175 178.832 75.1876 178.832C75.7279 178.922 76.2681 179.011 76.8084 179.101C77.0785 179.191 77.4387 179.191 77.7089 179.191C78.2491 179.281 78.6994 179.281 79.2396 179.371C79.5098 179.371 79.8699 179.461 80.1401 179.461C80.6803 179.551 81.1306 179.551 81.6708 179.641C81.941 179.641 82.3012 179.73 82.5713 179.73C83.1116 179.82 83.5618 179.82 84.1021 179.82C84.3722 179.82 84.7324 179.91 85.0025 179.91C85.5428 179.91 86.083 180 86.7134 180C86.9835 180 87.2536 180 87.5238 180C88.3342 180 89.1446 180 90.045 180C139.66 180 180 139.74 180 90.2247C179.91 89.4159 179.91 88.6071 179.91 87.7983Z" fill="#C2D1FF"/>
<path d="M107.064 38.5522H59.5198C57.0886 38.5522 55.1076 40.5292 55.1076 42.9556V132.461C55.1076 134.888 57.0886 136.865 59.5198 136.865H120.3C122.731 136.865 124.712 134.888 124.712 132.461V56.2556L107.064 38.5522Z" fill="white"/>
<path d="M55.0175 43.0454V65.2421H124.712V56.3455L106.974 38.5522H59.5198C57.0886 38.5522 55.0175 40.6191 55.0175 43.0454Z" fill="#698AFF"/>
<path d="M63.6618 49.1563H82.2111V54.5482H63.6618V49.1563Z" fill="white"/>
<path d="M107.064 51.8522V38.5522L124.892 56.3455H111.566C109.045 56.2556 107.064 54.2786 107.064 51.8522Z" fill="#5071E6"/>
<path d="M66.9935 80.4293C68.3442 79.0814 70.5053 79.0814 71.8559 80.4293L82.5713 91.1233C83.922 92.4713 83.922 94.6281 82.5713 95.976C81.2206 97.324 79.0595 97.324 77.7089 95.976L66.9935 85.2821C65.6428 83.9341 65.6428 81.7773 66.9935 80.4293Z" fill="#C9D5FF"/>
<path d="M82.5713 80.4293C83.922 81.7773 83.922 83.9341 82.5713 85.2821L71.8559 95.976C70.5053 97.324 68.3442 97.324 66.9935 95.976C65.6428 94.6281 65.6428 92.4713 66.9935 91.1233L77.7089 80.4293C79.0595 79.0814 81.2206 79.0814 82.5713 80.4293Z" fill="#C9D5FF"/>
<path d="M95.7179 80.4293C97.0685 79.0814 99.2296 79.0814 100.58 80.4293L111.296 91.1233C112.646 92.4713 112.646 94.6281 111.296 95.976C109.945 97.324 107.784 97.324 106.433 95.976L95.7179 85.2821C94.3672 83.9341 94.3672 81.7773 95.7179 80.4293Z" fill="#C9D5FF"/>
<path d="M111.386 80.4293C112.736 81.7773 112.736 83.9341 111.386 85.2821L100.67 95.976C99.3197 97.324 97.1586 97.324 95.8079 95.976C94.4573 94.6281 94.4573 92.4713 95.8079 91.1233L106.523 80.4293C107.784 79.0814 110.035 79.0814 111.386 80.4293Z" fill="#C9D5FF"/>
<path d="M76.3582 118.802C77.2586 118.802 78.1591 118.442 78.6994 117.723C81.4908 114.668 85.4527 112.691 89.955 112.691C94.4572 112.691 98.4192 114.668 101.211 117.723C101.841 118.352 102.651 118.802 103.552 118.802C106.253 118.802 107.694 115.567 105.893 113.5C101.931 109.096 96.2581 106.4 89.955 106.4C83.6518 106.4 77.979 109.186 74.017 113.5C72.2161 115.567 73.6568 118.802 76.3582 118.802Z" fill="#C9D5FF"/>
</svg>
