<svg width="128" height="124" viewBox="0 0 128 124" fill="none" xmlns="http://www.w3.org/2000/svg">
<g clip-path="url(#clip0_655_7274)">
<rect width="87.654" height="87.654" rx="15" transform="matrix(0.706667 0.707547 -0.706667 0.707547 64.0768 0)" fill="#00D287" fill-opacity="0.4"/>
<rect width="72.3903" height="72.3903" rx="15" transform="matrix(-0.708205 0.706007 -0.708205 -0.706007 115.654 62.0195)" fill="#00D287" fill-opacity="0.4"/>
<path d="M64.0001 43.666C61.5926 43.666 59.2086 44.1402 56.9843 45.0616C54.76 45.9829 52.7389 47.3333 51.0365 49.0357C47.5984 52.4739 45.6668 57.137 45.6668 61.9993C45.6668 66.8617 47.5984 71.5248 51.0365 74.963C52.7389 76.6654 54.76 78.0158 56.9843 78.9371C59.2086 79.8585 61.5926 80.3327 64.0001 80.3327C68.8624 80.3327 73.5256 78.4011 76.9638 74.963C80.4019 71.5248 82.3335 66.8617 82.3335 61.9993C82.3335 59.5918 81.8593 57.2078 80.9379 54.9835C80.0166 52.7592 78.6662 50.7381 76.9638 49.0357C75.2614 47.3333 73.2403 45.9829 71.016 45.0616C68.7917 44.1402 66.4077 43.666 64.0001 43.666ZM54.8335 57.416C54.8335 55.9493 56.1168 54.666 57.5835 54.666C59.0501 54.666 60.3335 55.9493 60.3335 57.416C60.3335 58.8827 59.0501 60.166 57.5835 60.166C56.1168 60.166 54.8335 58.8827 54.8335 57.416ZM64.0001 71.5877C60.7918 71.5877 57.9685 70.2493 56.3185 68.2693L58.9218 65.666C59.7468 66.986 61.7085 67.921 64.0001 67.921C66.2918 67.921 68.2535 66.986 69.0785 65.666L71.6818 68.2693C70.0318 70.2493 67.2085 71.5877 64.0001 71.5877ZM70.4168 60.166C68.9501 60.166 67.6668 58.8827 67.6668 57.416C67.6668 55.9493 68.9501 54.666 70.4168 54.666C71.8835 54.666 73.1668 55.9493 73.1668 57.416C73.1668 58.8827 71.8835 60.166 70.4168 60.166Z" fill="white"/>
</g>
<defs>
<clipPath id="clip0_655_7274">
<rect width="128" height="124" fill="white"/>
</clipPath>
</defs>
</svg>
