<svg width="32" height="32" viewBox="0 0 32 32" fill="none" xmlns="http://www.w3.org/2000/svg">
<rect width="32" height="32" rx="6" fill="#128C7E"/>
<path fill-rule="evenodd" clip-rule="evenodd" d="M22.403 9.63303C21.5714 8.79591 20.5819 8.13214 19.4919 7.68018C18.4019 7.22821 17.233 6.99703 16.053 7.00003C11.105 7.00003 7.077 11.027 7.075 15.977C7.075 17.559 7.488 19.103 8.273 20.465L7 25.116L11.759 23.867C13.0754 24.5836 14.5502 24.9594 16.049 24.96H16.053C21 24.96 25.028 20.933 25.03 15.983C25.0334 14.8035 24.803 13.635 24.3521 12.5451C23.9012 11.4552 23.2387 10.4654 22.403 9.63303ZM16.053 23.445H16.05C14.7135 23.4452 13.4016 23.0856 12.252 22.404L11.98 22.242L9.156 22.983L9.909 20.23L9.732 19.948C8.98479 18.7585 8.58923 17.3818 8.591 15.977C8.593 11.863 11.94 8.51603 16.056 8.51603C17.0363 8.51385 18.0072 8.70611 18.9127 9.08168C19.8181 9.45725 20.6401 10.0087 21.331 10.704C22.0256 11.3961 22.5762 12.2189 22.9509 13.125C23.3256 14.0311 23.517 15.0025 23.514 15.983C23.512 20.097 20.165 23.445 16.053 23.445ZM20.146 17.856C19.921 17.743 18.819 17.201 18.613 17.126C18.408 17.051 18.259 17.014 18.109 17.238C17.959 17.462 17.529 17.967 17.398 18.117C17.267 18.267 17.136 18.285 16.912 18.173C16.688 18.061 15.965 17.824 15.108 17.06C14.441 16.465 13.991 15.731 13.86 15.506C13.729 15.281 13.846 15.16 13.959 15.048C14.06 14.948 14.183 14.786 14.295 14.655C14.407 14.524 14.444 14.431 14.519 14.281C14.594 14.131 14.557 14 14.5 13.888C14.444 13.775 13.995 12.671 13.808 12.222C13.627 11.787 13.442 11.845 13.304 11.839C13.1611 11.8332 13.018 11.8305 12.875 11.831C12.7613 11.8339 12.6493 11.8603 12.5463 11.9085C12.4432 11.9567 12.3512 12.0256 12.276 12.111C12.07 12.336 11.491 12.878 11.491 13.982C11.491 15.086 12.295 16.153 12.407 16.303C12.519 16.453 13.989 18.718 16.239 19.69C16.775 19.921 17.193 20.059 17.518 20.163C18.055 20.334 18.544 20.309 18.931 20.252C19.362 20.188 20.258 19.71 20.445 19.186C20.632 18.662 20.632 18.213 20.576 18.119C20.52 18.025 20.369 17.968 20.146 17.856Z" fill="white"/>
</svg>
